# File created by Blade
# Date/Time:  Tue Apr 07 20:13:55 2015
# Frame Rate: 120.000 fps
#------------------------------------------------------
:FULLY-SPECIFIED
:DEGREES
3247
root 2.975610 33.904642 -9.157565 -6.328400 -16.486430 -35.500918
Spine 19.100440 -25.090886 15.355845
Head 9.305563 -6.034753 12.210245
LeftShoulder 9.415954 21.029031 39.254857
LeftArm 90.422945 22.223605 -51.803645
LeftForeArm -45.352505 -0.000000 66.270002
LeftHand -0.591577 -0.000000 -13.316125
LeftHandThumb1 -26.253704 0.000000 33.147579
RightShoulder -4.970873 -1.211066 -19.663959
RightArm 19.764736 -21.623084 70.283397
RightForeArm 47.043672 -0.000000 94.001885
RightHand 0.105479 -0.000000 28.225169
RightHandThumb1 -24.326973 -0.000000 -32.862282
LeftUpLeg 5.520805 6.764622 32.225968
LeftLeg 26.021880 -0.000000 -0.000000
LeftFoot -18.854085 5.266953 -26.798502
LeftToeBase -0.308038 -0.000000 0.000000
RightUpLeg -121.392942 -38.885685 1.954129
RightLeg 47.430192 -0.000000 -0.000000
RightFoot 41.360627 -13.041806 -2.175877
RightToeBase 32.583179 -0.000000 -0.000000
3248
root 2.976025 33.922961 -9.160517 -6.236698 -16.595417 -35.594526
Spine 18.873507 -25.035625 15.366810
Head 9.992324 -6.162105 12.189436
LeftShoulder 9.496441 21.161158 39.231730
LeftArm 90.163534 22.438106 -51.880357
LeftForeArm -45.457999 -0.000000 66.264731
LeftHand -0.585326 -0.000000 -12.992307
LeftHandThumb1 -26.253704 0.000000 33.147579
RightShoulder -4.880880 -1.013791 -19.630472
RightArm 19.744822 -21.905885 70.100292
RightForeArm 46.974953 -0.000000 93.655447
RightHand -0.113992 0.000000 28.431682
RightHandThumb1 -24.326973 -0.000000 -32.862282
LeftUpLeg 5.402506 6.663230 32.207637
LeftLeg 26.114366 -0.000000 -0.000000
LeftFoot -18.769643 5.884090 -26.767366
LeftToeBase -0.618002 -0.000000 0.000000
RightUpLeg -121.810761 -38.315597 2.840277
RightLeg 50.138638 -0.000000 -0.000000
RightFoot 40.936407 -11.834741 -1.579639
RightToeBase 32.844271 -0.000000 -0.000000
3249
root 2.976559 33.932892 -9.161632 -6.087732 -16.721568 -35.629844
Spine 18.540730 -24.927393 15.364737
Head 10.639075 -6.281805 12.105569
LeftShoulder 9.569916 21.405834 39.258503
LeftArm 90.010082 22.615425 -51.931717
LeftForeArm -45.515192 -0.000000 66.188661
LeftHand -0.481256 0.000000 -12.877762
LeftHandThumb1 -26.253704 0.000000 33.147579
RightShoulder -4.761824 -0.892375 -19.637875
RightArm 19.675321 -22.244266 69.883454
RightForeArm 46.937088 0.000000 93.400556
RightHand 0.019032 -0.000000 28.692423
RightHandThumb1 -24.326973 -0.000000 -32.862282
LeftUpLeg 5.269334 6.661672 32.139788
LeftLeg 26.172549 -0.000000 -0.000000
LeftFoot -18.697049 6.404568 -26.668308
LeftToeBase -0.919309 -0.000000 0.000000
RightUpLeg -122.220042 -37.746543 3.584775
RightLeg 52.877677 -0.000000 -0.000000
RightFoot 40.220817 -11.368709 -1.344103
RightToeBase 33.188478 -0.000000 -0.000000
3250
root 2.972801 33.936986 -9.164782 -5.835793 -16.858593 -35.669635
Spine 18.099026 -24.771526 15.439718
Head 11.128433 -6.349906 12.008325
LeftShoulder 9.608221 21.642422 39.289922
LeftArm 89.836260 22.846640 -52.016933
LeftForeArm -45.493924 -0.000000 66.158156
LeftHand -0.295362 -0.000000 -13.078120
LeftHandThumb1 -26.253704 0.000000 33.147579
RightShoulder -4.663574 -0.863654 -19.695264
RightArm 19.624987 -22.623304 69.665887
RightForeArm 47.054461 0.000000 93.259751
RightHand -0.020104 -0.000000 28.773035
RightHandThumb1 -24.326973 -0.000000 -32.862282
LeftUpLeg 5.103039 6.824801 32.111860
LeftLeg 26.185501 -0.000000 -0.000000
LeftFoot -18.652971 6.778313 -26.476249
LeftToeBase -0.881485 -0.000000 0.000000
RightUpLeg -122.652252 -37.176047 4.222966
RightLeg 55.701909 -0.000000 -0.000000
RightFoot 39.631690 -11.518436 -1.548534
RightToeBase 32.791298 -0.000000 -0.000000
3251
root 2.965184 33.935544 -9.168973 -5.552900 -17.005301 -35.714661
Spine 17.649845 -24.513298 15.561822
Head 11.408725 -6.439769 11.942683
LeftShoulder 9.616491 21.882932 39.296088
LeftArm 89.793207 23.051731 -51.999265
LeftForeArm -45.579267 -0.000000 66.134243
LeftHand -0.277379 0.000000 -13.324375
LeftHandThumb1 -26.253704 0.000000 33.147579
RightShoulder -4.612958 -0.813411 -19.816701
RightArm 19.411443 -22.978790 69.592323
RightForeArm 47.076072 0.000000 93.218673
RightHand -0.024376 -0.000000 28.837292
RightHandThumb1 -24.326973 -0.000000 -32.862282
LeftUpLeg 4.954804 7.050831 32.117522
LeftLeg 26.150813 -0.000000 -0.000000
LeftFoot -18.595595 7.057045 -26.247841
LeftToeBase -1.231355 -0.000000 0.000000
RightUpLeg -123.095249 -36.591355 4.754175
RightLeg 58.708723 -0.000000 -0.000000
RightFoot 39.144370 -12.171190 -1.998521
RightToeBase 32.561334 -0.000000 -0.000000
3252
root 2.954722 33.930344 -9.174375 -5.295038 -17.103025 -35.752803
Spine 17.242130 -24.266608 15.692340
Head 11.497477 -6.479737 11.809759
LeftShoulder 9.557621 22.099441 39.237177
LeftArm 89.757179 23.248165 -51.961285
LeftForeArm -45.573313 -0.000000 66.185958
LeftHand -0.558371 -0.000000 -13.360529
LeftHandThumb1 -26.253704 0.000000 33.147579
RightShoulder -4.605378 -1.136295 -19.905285
RightArm 19.582699 -23.149004 69.393956
RightForeArm 47.121437 -0.000000 93.229821
RightHand 0.022558 -0.000000 28.905233
RightHandThumb1 -24.326973 -0.000000 -32.862282
LeftUpLeg 4.819229 7.178000 32.131271
LeftLeg 26.119508 -0.000000 -0.000000
LeftFoot -18.538525 7.131473 -26.066217
LeftToeBase -1.250025 -0.000000 0.000000
RightUpLeg -123.447189 -36.117145 5.064437
RightLeg 61.852644 -0.000000 -0.000000
RightFoot 38.900268 -13.006551 -2.142474
RightToeBase 32.358710 -0.000000 -0.000000
